<svg width="430" height="113" viewBox="0 0 430 113" fill="none" xmlns="http://www.w3.org/2000/svg">
<g filter="url(#filter0_d_2_63)">
<mask id="path-1-inside-1_2_63" fill="white">
<path d="M-21 28.9999L113.5 41.5L212.5 0.5L325 41.5L435 28.9999V159H-21V28.9999Z"/>
</mask>
<path d="M-21 28.9999L113.5 41.5L212.5 0.5L325 41.5L435 28.9999V159H-21V28.9999Z" fill="#D9D9D9"/>
<path d="M-21 28.9999L-20.9075 28.0042L-22 27.9026V28.9999H-21ZM435 28.9999H436V27.8798L434.887 28.0063L435 28.9999ZM435 159V160H436V159H435ZM-21 159H-22V160H-21V159ZM212.5 0.5L212.842 -0.439549L212.477 -0.572777L212.117 -0.423903L212.5 0.5ZM113.5 41.5L113.407 42.4957L113.654 42.5186L113.883 42.4239L113.5 41.5ZM325 41.5L324.658 42.4395L324.879 42.5202L325.113 42.4936L325 41.5ZM434 28.9999V159H436V28.9999H434ZM435 158H-21V160H435V158ZM-20 159V28.9999H-22V159H-20ZM-21.0925 29.9956L113.407 42.4957L113.593 40.5043L-20.9075 28.0042L-21.0925 29.9956ZM113.883 42.4239L212.883 1.4239L212.117 -0.423903L113.117 40.5761L113.883 42.4239ZM212.158 1.43955L324.658 42.4395L325.342 40.5605L212.842 -0.439549L212.158 1.43955ZM325.113 42.4936L435.113 29.9935L434.887 28.0063L324.887 40.5064L325.113 42.4936Z" fill="black" mask="url(#path-1-inside-1_2_63)"/>
</g>
<defs>
<filter id="filter0_d_2_63" x="-25" y="0.5" width="464" height="166.5" filterUnits="userSpaceOnUse" color-interpolation-filters="sRGB">
<feFlood flood-opacity="0" result="BackgroundImageFix"/>
<feColorMatrix in="SourceAlpha" type="matrix" values="0 0 0 0 0 0 0 0 0 0 0 0 0 0 0 0 0 0 127 0" result="hardAlpha"/>
<feOffset dy="4"/>
<feGaussianBlur stdDeviation="2"/>
<feComposite in2="hardAlpha" operator="out"/>
<feColorMatrix type="matrix" values="0 0 0 0 0 0 0 0 0 0 0 0 0 0 0 0 0 0 0.25 0"/>
<feBlend mode="normal" in2="BackgroundImageFix" result="effect1_dropShadow_2_63"/>
<feBlend mode="normal" in="SourceGraphic" in2="effect1_dropShadow_2_63" result="shape"/>
</filter>
</defs>
</svg>
