<svg width="100" height="100" viewBox="0 0 132 132" fill="none" xmlns="http://www.w3.org/2000/svg">
  <g clip-path="url(#clip0_11_89)">
    <path d="M66 132C102.451 132 132 102.451 132 66C132 29.5492 102.451 0 66 0C29.5492 0 0 29.5492 0 66C0 102.451 29.5492 132 66 132Z" fill="url(#paint0_linear_11_89)"/>
    <path d="M44.6759 70.8246L52.5063 92.4979C52.5063 92.4979 53.4853 94.5258 54.5336 94.5258C55.5819 94.5258 71.1738 78.3052 71.1738 78.3052L88.5126 44.8157L44.9553 65.23L44.6759 70.8246Z" fill="#C8DAEA"/>
    <path d="M55.0583 76.3828L53.5551 92.3581C53.5551 92.3581 52.9259 97.2531 57.8198 92.3581C62.7137 87.4631 67.3981 83.6885 67.3981 83.6885" fill="#A9C6D8"/>
    <g filter="url(#filter0_d_11_89)">
      <path d="M44.8173 71.5979L28.71 66.3498C28.71 66.3498 26.785 65.5688 27.4048 63.7978C27.5324 63.4326 27.7898 63.1218 28.5598 62.5878C32.1288 60.1001 94.6181 37.6398 94.6181 37.6398C94.6181 37.6398 96.3825 37.0452 97.4231 37.4407C97.6806 37.5203 97.9122 37.667 98.0944 37.8656C98.2765 38.0642 98.4027 38.3076 98.4599 38.5709C98.5723 39.036 98.6193 39.5145 98.5996 39.9927C98.5946 40.4063 98.5446 40.7896 98.5066 41.3908C98.126 47.5315 86.7366 93.3619 86.7366 93.3619C86.7366 93.3619 86.0552 96.0437 83.6137 96.1356C83.0137 96.1549 82.416 96.0533 81.8561 95.8367C81.2963 95.6202 80.7857 95.2931 80.355 94.875C75.5639 90.7538 59.0045 79.6251 55.3454 77.1776C55.2628 77.1214 55.1933 77.0481 55.1415 76.9627C55.0897 76.8773 55.0568 76.7818 55.0451 76.6826C54.9939 76.4247 55.2744 76.1051 55.2744 76.1051C55.2744 76.1051 84.1087 50.4751 84.876 47.7845C84.9354 47.5761 84.711 47.4732 84.4096 47.5645C82.4945 48.2691 49.2954 69.2345 45.6313 71.5484C45.3675 71.6282 45.0888 71.6451 44.8173 71.5979Z" fill="white"/>
    </g>
  </g>
  <defs>
    <filter id="filter0_d_11_89" x="23.2819" y="37.3049" width="79.3221" height="66.833" filterUnits="userSpaceOnUse" color-interpolation-filters="sRGB">
      <feFlood flood-opacity="0" result="BackgroundImageFix"/>
      <feColorMatrix in="SourceAlpha" type="matrix" values="0 0 0 0 0 0 0 0 0 0 0 0 0 0 0 0 0 0 127 0" result="hardAlpha"/>
      <feOffset dy="4"/>
      <feGaussianBlur stdDeviation="2"/>
      <feComposite in2="hardAlpha" operator="out"/>
      <feColorMatrix type="matrix" values="0 0 0 0 0 0 0 0 0 0 0 0 0 0 0 0 0 0 0.25 0"/>
      <feBlend mode="normal" in2="BackgroundImageFix" result="effect1_dropShadow_11_89"/>
      <feBlend mode="normal" in="SourceGraphic" in2="effect1_dropShadow_11_89" result="shape"/>
    </filter>
    <linearGradient id="paint0_linear_11_89" x1="66" y1="132" x2="66" y2="0" gradientUnits="userSpaceOnUse">
      <stop stop-color="#1D93D2"/>
      <stop offset="1" stop-color="#38B0E3"/>
    </linearGradient>
    <clipPath id="clip0_11_89">
      <rect width="132" height="132" fill="white"/>
    </clipPath>
  </defs>
</svg>
